M48
INCH,LZ
;FILE_FORMAT=2:4
;TYPE=PLATED
;Layer: PTH_Through_Via
;EasyEDA v6.5.22, 2023-04-11 14:51:41
;09d7e0edd1714e2dabe8a3ea8b78781f,917733c78a1c4f138cc1705716371eb4,10
;Gerber Generator version 0.2
;Holesize 1 = 0.0100 inch
T01C0.0100
;Holesize 2 = 0.0120 inch
T02C0.0120
%
G05
G90
T01
X013831Y-001484
X013831Y-002035
X013831Y-002586
X014106Y-002311
X014106Y-001760
X013279Y-001484
X013279Y-002035
X013279Y-002586
X013004Y-002311
X013004Y-001760
X013555Y-001760
X013555Y-002311
T02
X008584Y005127
X008984Y006677
X008284Y006877
X008784Y004427
X008284Y004377
X009050Y001850
X006384Y006327
X006534Y002327
X004334Y001577
X004584Y005077
X005684Y-000873
X005884Y000677
X003784Y003627
X003784Y004577
X001234Y005727
X001534Y-003523
X001534Y005627
X001734Y-003073
X002584Y000177
X003050Y004450
X002884Y-000073
X003434Y004427
X-000516Y000277
X000084Y002377
X003300Y002350
X-000850Y000000
X000000Y002950
X003050Y002750
X007900Y000450
X015450Y-004100
X006800Y-002150
X015450Y-004600
X025850Y-004150
X026400Y-002000
X025450Y000250
X024800Y003950
X025000Y-001500
X024350Y003600
X024500Y000850
X023850Y003200
X023950Y001550
X023400Y004550
X023900Y-004900
X022950Y005000
X023050Y-003000
X022400Y005550
X023000Y-005550
X015550Y-001350
X017350Y-003450
X014550Y007200
X017000Y007200
X019900Y007200
X018600Y001650
X020600Y001600
X000850Y-001350
X-000450Y-000750
X004200Y-001650
X018700Y-001750
X014600Y000500
X002550Y004650
M30
