M48
INCH,LZ
;FILE_FORMAT=2:4
;TYPE=PLATED
;Layer: PTH_Through
;EasyEDA v6.5.22, 2023-04-11 14:51:41
;09d7e0edd1714e2dabe8a3ea8b78781f,917733c78a1c4f138cc1705716371eb4,10
;Gerber Generator version 0.2
;Holesize 1 = 0.0240 inch
T01C0.0240
;Holesize 2 = 0.0330 inch
T02C0.0330
;Holesize 3 = 0.0350 inch
T03C0.0350
%
G05
G90
T01
X000110Y-001661G85X000504Y-001661
X000110Y-001602G85X000110Y-001327
X000110Y001756G85X000504Y001756
X000110Y001421G85X000110Y001697
T02
X027329Y-006453
X027329Y-005453
X027329Y-004453
X027329Y-003453
X027329Y-002453
X027329Y-001453
X027329Y-000453
X027329Y000547
X027329Y001547
X027329Y002547
X027329Y003547
X027329Y004547
X027329Y005547
X027329Y006547
T03
X-001760Y001748G85X-001287Y001748
X-001760Y-001653G85X-001287Y-001653
M30
