G04 Layer: TopSolderMaskLayer*
G04 EasyEDA v6.5.22, 2023-04-11 14:51:41*
G04 09d7e0edd1714e2dabe8a3ea8b78781f,917733c78a1c4f138cc1705716371eb4,10*
G04 Gerber Generator version 0.2*
G04 Scale: 100 percent, Rotated: No, Reflected: No *
G04 Dimensions in inches *
G04 leading zeros omitted , absolute positions ,3 integer and 6 decimal *
%FSLAX36Y36*%
%MOIN*%

%AMMACRO1*1,1,$1,$2,$3*1,1,$1,$4,$5*1,1,$1,0-$2,0-$3*1,1,$1,0-$4,0-$5*20,1,$1,$2,$3,$4,$5,0*20,1,$1,$4,$5,0-$2,0-$3,0*20,1,$1,0-$2,0-$3,0-$4,0-$5,0*20,1,$1,0-$4,0-$5,$2,$3,0*4,1,4,$2,$3,$4,$5,0-$2,0-$3,0-$4,0-$5,$2,$3,0*%
%ADD10MACRO1,0.004X-0.0156X-0.0106X-0.0156X0.0106*%
%ADD11MACRO1,0.004X0.0156X-0.0106X0.0156X0.0106*%
%ADD12MACRO1,0.004X-0.0157X0.0177X0.0157X0.0177*%
%ADD13MACRO1,0.0039X-0.0217X0.0256X0.0217X0.0256*%
%ADD14MACRO1,0.004X-0.0246X0.0138X0.0246X0.0138*%
%ADD15MACRO1,0.004X-0.0159X-0.017X-0.0159X0.017*%
%ADD16MACRO1,0.004X0.0159X-0.017X0.0159X0.017*%
%ADD17MACRO1,0.0039X0.0295X-0.0177X-0.0295X-0.0177*%
%ADD18MACRO1,0.0039X0.0177X0.0295X0.0177X-0.0295*%
%ADD19MACRO1,0.0039X-0.0295X0.0177X0.0295X0.0177*%
%ADD20MACRO1,0.004X0.0177X0.0177X0.0177X-0.0177*%
%ADD21MACRO1,0.004X-0.063X-0.063X-0.063X0.063*%
%ADD22O,0.039432999999999996X0.015024000000000003*%
%ADD23O,0.015024000000000003X0.039432999999999996*%
%ADD24C,0.0536*%
%ADD25MACRO1,0.004X0.0486X-0.0193X0.0486X0.0193*%
%ADD26MACRO1,0.004X0.0486X0.0709X0.0486X-0.0709*%
%ADD27MACRO1,0.004X0.0187X0.0049X0.0187X-0.0049*%
%ADD28MACRO1,0.004X-0.0187X-0.0049X-0.0187X0.0049*%
%ADD29R,0.0374X0.0098*%
%ADD30O,0.102425X0.05518100000000001*%
%ADD31O,0.08267799999999999X0.043308*%
%ADD32O,0.043308X0.06299300000000001*%
%ADD33O,0.041732X0.061417*%

%LPD*%
D10*
G01*
X399882Y297730D03*
D11*
G01*
X356964Y297730D03*
D10*
G01*
X399883Y107730D03*
D11*
G01*
X356964Y107730D03*
D12*
G01*
X712065Y182730D03*
G01*
X656947Y182730D03*
D13*
G01*
X645304Y-47269D03*
G01*
X724041Y-47269D03*
G01*
X645304Y-157269D03*
G01*
X724041Y-157269D03*
D14*
G01*
X772793Y405330D03*
G01*
X772793Y480129D03*
G01*
X694054Y442729D03*
G01*
X772793Y630330D03*
G01*
X772793Y705129D03*
G01*
X694054Y667729D03*
D15*
G01*
X1013079Y667730D03*
D16*
G01*
X953768Y667730D03*
D15*
G01*
X1013079Y442730D03*
D16*
G01*
X953768Y442730D03*
D15*
G01*
X713855Y72730D03*
D16*
G01*
X654544Y72730D03*
D17*
G01*
X1640912Y-507464D03*
G01*
X1640912Y-457464D03*
G01*
X1640912Y-407464D03*
G01*
X1640912Y-357464D03*
G01*
X1640912Y-307464D03*
G01*
X1640912Y-257464D03*
G01*
X1640912Y-207464D03*
G01*
X1640912Y-157464D03*
G01*
X1640912Y-107464D03*
G01*
X1640912Y-57464D03*
G01*
X1640912Y-7464D03*
G01*
X1640912Y42535D03*
G01*
X1640912Y92535D03*
G01*
X1640912Y142535D03*
D18*
G01*
X1571424Y192929D03*
G01*
X1521424Y192929D03*
G01*
X1471424Y192929D03*
G01*
X1421424Y192929D03*
G01*
X1371424Y192929D03*
G01*
X1321424Y192929D03*
G01*
X1271424Y192929D03*
G01*
X1221424Y192929D03*
G01*
X1171424Y192929D03*
G01*
X1121424Y192929D03*
G01*
X1071424Y192929D03*
G01*
X1021424Y191746D03*
D19*
G01*
X951936Y142535D03*
G01*
X951936Y92535D03*
G01*
X951936Y42535D03*
G01*
X951936Y-7464D03*
G01*
X951936Y-57464D03*
G01*
X951936Y-107464D03*
G01*
X951936Y-157464D03*
G01*
X951936Y-207464D03*
G01*
X951936Y-257464D03*
G01*
X951936Y-307464D03*
G01*
X951936Y-357464D03*
G01*
X951936Y-407464D03*
G01*
X951936Y-457464D03*
G01*
X951936Y-507464D03*
D20*
G01*
X1300365Y-148405D03*
G01*
X1355482Y-148401D03*
G01*
X1410599Y-148405D03*
G01*
X1410599Y-258641D03*
G01*
X1355482Y-258641D03*
G01*
X1300365Y-258641D03*
G01*
X1300365Y-203523D03*
G01*
X1410600Y-203523D03*
G01*
X1355482Y-203523D03*
D21*
G01*
X323419Y607725D03*
D22*
G01*
X225003Y548620D03*
G01*
X225003Y568320D03*
G01*
X225003Y588020D03*
G01*
X225003Y607719D03*
G01*
X225003Y627420D03*
G01*
X225003Y647119D03*
G01*
X225003Y666820D03*
D23*
G01*
X264324Y706150D03*
G01*
X284023Y706150D03*
G01*
X303724Y706150D03*
G01*
X323424Y706150D03*
G01*
X343124Y706150D03*
G01*
X362823Y706150D03*
G01*
X382513Y706150D03*
D22*
G01*
X421843Y666820D03*
G01*
X421843Y647119D03*
G01*
X421843Y627420D03*
G01*
X421843Y607719D03*
G01*
X421843Y588020D03*
G01*
X421843Y568320D03*
G01*
X421843Y548620D03*
D23*
G01*
X382513Y509300D03*
G01*
X362823Y509300D03*
G01*
X343124Y509300D03*
G01*
X323424Y509300D03*
G01*
X303724Y509300D03*
G01*
X284023Y509300D03*
G01*
X264324Y509300D03*
D24*
G01*
X2732923Y-645270D03*
G01*
X2732923Y-545270D03*
G01*
X2732923Y-445270D03*
G01*
X2732923Y-345270D03*
G01*
X2732923Y-245270D03*
G01*
X2732923Y-145270D03*
G01*
X2732923Y-45270D03*
G01*
X2732923Y54729D03*
G01*
X2732923Y154729D03*
G01*
X2732923Y254729D03*
G01*
X2732923Y354729D03*
G01*
X2732923Y454729D03*
G01*
X2732923Y554729D03*
G01*
X2732923Y654729D03*
D25*
G01*
X485038Y-217821D03*
G01*
X485038Y-127269D03*
G01*
X485038Y-36718D03*
D26*
G01*
X261810Y-127269D03*
D27*
G01*
X49211Y108273D03*
G01*
X49211Y88588D03*
G01*
X49211Y68903D03*
G01*
X49211Y49218D03*
G01*
X49211Y29533D03*
G01*
X49211Y9848D03*
G01*
X49211Y-9836D03*
G01*
X49211Y-29521D03*
G01*
X49211Y-49206D03*
G01*
X49211Y-68891D03*
G01*
X49211Y-88577D03*
G01*
X49211Y-108261D03*
D28*
G01*
X-0Y-98419D03*
G01*
X-0Y-78734D03*
G01*
X-0Y-59049D03*
G01*
X-0Y-39364D03*
G01*
X-0Y-19679D03*
G01*
X-0Y5D03*
G01*
X-0Y19690D03*
G01*
X-0Y39375D03*
G01*
X-0Y59060D03*
G01*
X-0Y78745D03*
G01*
X-0Y98430D03*
D29*
G01*
X3Y118110D03*
D30*
G01*
X-152355Y174810D03*
G01*
X-152355Y-165349D03*
D31*
G01*
X30713Y-166140D03*
D32*
G01*
X11024Y-146449D03*
D31*
G01*
X30713Y175599D03*
D33*
G01*
X11024Y155910D03*
M02*
