G04 Layer: TopSilkscreenLayer*
G04 EasyEDA v6.5.22, 2023-04-11 14:51:41*
G04 09d7e0edd1714e2dabe8a3ea8b78781f,917733c78a1c4f138cc1705716371eb4,10*
G04 Gerber Generator version 0.2*
G04 Scale: 100 percent, Rotated: No, Reflected: No *
G04 Dimensions in inches *
G04 leading zeros omitted , absolute positions ,3 integer and 6 decimal *
%FSLAX36Y36*%
%MOIN*%

%ADD10C,0.0060*%
%ADD11C,0.0100*%
%ADD12C,0.0039*%
%ADD13C,0.0079*%
%ADD14C,0.0118*%
%ADD15C,0.0116*%

%LPD*%
D10*
X409123Y172930D02*
G01*
X407023Y177029D01*
X402923Y181130D01*
X398924Y183130D01*
X390723Y183130D01*
X386623Y181130D01*
X382523Y177029D01*
X380423Y172930D01*
X378424Y166730D01*
X378424Y156530D01*
X380423Y150430D01*
X382523Y146330D01*
X386623Y142229D01*
X390723Y140230D01*
X398924Y140230D01*
X402923Y142229D01*
X407023Y146330D01*
X409123Y150430D01*
X443024Y183130D02*
G01*
X422624Y154529D01*
X453323Y154529D01*
X443024Y183130D02*
G01*
X443024Y140230D01*
X705206Y257930D02*
G01*
X703106Y262029D01*
X699006Y266130D01*
X695005Y268130D01*
X686806Y268130D01*
X682706Y266130D01*
X678606Y262029D01*
X676506Y257930D01*
X674505Y251730D01*
X674505Y241530D01*
X676506Y235430D01*
X678606Y231330D01*
X682706Y227229D01*
X686806Y225230D01*
X695005Y225230D01*
X699006Y227229D01*
X703106Y231330D01*
X705206Y235430D01*
X743205Y268130D02*
G01*
X722805Y268130D01*
X720705Y249729D01*
X722805Y251730D01*
X728906Y253830D01*
X735005Y253830D01*
X741205Y251730D01*
X745305Y247730D01*
X747306Y241530D01*
X747306Y237429D01*
X745305Y231330D01*
X741205Y227229D01*
X735005Y225230D01*
X728906Y225230D01*
X722805Y227229D01*
X720705Y229230D01*
X718705Y233330D01*
X745723Y568130D02*
G01*
X741623Y566130D01*
X737523Y562029D01*
X735423Y557930D01*
X733424Y551730D01*
X733424Y541530D01*
X735423Y535430D01*
X737523Y531330D01*
X741623Y527229D01*
X745723Y525230D01*
X753924Y525230D01*
X757923Y527229D01*
X762023Y531330D01*
X764123Y535430D01*
X766124Y541530D01*
X766124Y551730D01*
X764123Y557930D01*
X762023Y562029D01*
X757923Y566130D01*
X753924Y568130D01*
X745723Y568130D01*
X751824Y533330D02*
G01*
X764123Y521130D01*
X783723Y568130D02*
G01*
X806223Y568130D01*
X793924Y551730D01*
X800124Y551730D01*
X804223Y549729D01*
X806223Y547730D01*
X808323Y541530D01*
X808323Y537429D01*
X806223Y531330D01*
X802123Y527229D01*
X796024Y525230D01*
X789923Y525230D01*
X783723Y527229D01*
X781723Y529230D01*
X779623Y533330D01*
X745723Y793130D02*
G01*
X741623Y791130D01*
X737523Y787029D01*
X735423Y782930D01*
X733424Y776730D01*
X733424Y766530D01*
X735423Y760430D01*
X737523Y756330D01*
X741623Y752229D01*
X745723Y750230D01*
X753924Y750230D01*
X757923Y752229D01*
X762023Y756330D01*
X764123Y760430D01*
X766124Y766530D01*
X766124Y776730D01*
X764123Y782930D01*
X762023Y787029D01*
X757923Y791130D01*
X753924Y793130D01*
X745723Y793130D01*
X751824Y758330D02*
G01*
X764123Y746130D01*
X804223Y793130D02*
G01*
X783723Y793130D01*
X781723Y774729D01*
X783723Y776730D01*
X789923Y778830D01*
X796024Y778830D01*
X802123Y776730D01*
X806223Y772730D01*
X808323Y766530D01*
X808323Y762429D01*
X806223Y756330D01*
X802123Y752229D01*
X796024Y750230D01*
X789923Y750230D01*
X783723Y752229D01*
X781723Y754230D01*
X779623Y758330D01*
X983424Y753130D02*
G01*
X983424Y710230D01*
X983424Y753130D02*
G01*
X1001824Y753130D01*
X1007923Y751130D01*
X1010023Y749030D01*
X1012023Y744929D01*
X1012023Y740830D01*
X1010023Y736730D01*
X1007923Y734729D01*
X1001824Y732730D01*
X983424Y732730D01*
X997724Y732730D02*
G01*
X1012023Y710230D01*
X1046024Y753130D02*
G01*
X1025524Y724529D01*
X1056223Y724529D01*
X1046024Y753130D02*
G01*
X1046024Y710230D01*
X983424Y528130D02*
G01*
X983424Y485230D01*
X983424Y528130D02*
G01*
X1001824Y528130D01*
X1007923Y526130D01*
X1010023Y524030D01*
X1012023Y519929D01*
X1012023Y515830D01*
X1010023Y511730D01*
X1007923Y509729D01*
X1001824Y507730D01*
X983424Y507730D01*
X997724Y507730D02*
G01*
X1012023Y485230D01*
X1050124Y528130D02*
G01*
X1029623Y528130D01*
X1027624Y509729D01*
X1029623Y511730D01*
X1035823Y513830D01*
X1041924Y513830D01*
X1048024Y511730D01*
X1052123Y507730D01*
X1054223Y501530D01*
X1054223Y497429D01*
X1052123Y491330D01*
X1048024Y487229D01*
X1041924Y485230D01*
X1035823Y485230D01*
X1029623Y487229D01*
X1027624Y489230D01*
X1025524Y493330D01*
X684199Y158130D02*
G01*
X684199Y115230D01*
X684199Y158130D02*
G01*
X702599Y158130D01*
X708700Y156130D01*
X710800Y154030D01*
X712800Y149929D01*
X712800Y145830D01*
X710800Y141730D01*
X708700Y139729D01*
X702599Y137730D01*
X684199Y137730D01*
X698499Y137730D02*
G01*
X712800Y115230D01*
X726299Y149929D02*
G01*
X730400Y152029D01*
X736600Y158130D01*
X736600Y115230D01*
X752099Y147930D02*
G01*
X752099Y149929D01*
X754199Y154030D01*
X756200Y156130D01*
X760300Y158130D01*
X768499Y158130D01*
X772599Y156130D01*
X774599Y154030D01*
X776699Y149929D01*
X776699Y145830D01*
X774599Y141730D01*
X770499Y135630D01*
X750099Y115230D01*
X778700Y115230D01*
X1326424Y-862864D02*
G01*
X1326424Y-832165D01*
X1324424Y-826064D01*
X1320323Y-821965D01*
X1314123Y-819964D01*
X1310023Y-819964D01*
X1303924Y-821965D01*
X1299824Y-826064D01*
X1297823Y-832165D01*
X1297823Y-862864D01*
X1282224Y-852664D02*
G01*
X1282224Y-854665D01*
X1280224Y-858764D01*
X1278124Y-860864D01*
X1274024Y-862864D01*
X1265924Y-862864D01*
X1261824Y-860864D01*
X1259724Y-858764D01*
X1257724Y-854665D01*
X1257724Y-850564D01*
X1259724Y-846464D01*
X1263823Y-840364D01*
X1284324Y-819964D01*
X1255624Y-819964D01*
X318058Y783495D02*
G01*
X318058Y752795D01*
X320059Y746694D01*
X324158Y742595D01*
X330358Y740595D01*
X334459Y740595D01*
X340558Y742595D01*
X344658Y746694D01*
X346659Y752795D01*
X346659Y783495D01*
X364258Y783495D02*
G01*
X386758Y783495D01*
X374559Y767094D01*
X380659Y767094D01*
X384758Y765095D01*
X386758Y763095D01*
X388858Y756894D01*
X388858Y752795D01*
X386758Y746694D01*
X382658Y742595D01*
X376559Y740595D01*
X370458Y740595D01*
X364258Y742595D01*
X362258Y744594D01*
X360158Y748695D01*
X2627523Y4729D02*
G01*
X2658223Y4729D01*
X2664324Y6730D01*
X2668424Y10830D01*
X2670423Y17029D01*
X2670423Y21130D01*
X2668424Y27229D01*
X2664324Y31330D01*
X2658223Y33330D01*
X2627523Y33330D01*
X2627523Y67330D02*
G01*
X2656124Y46829D01*
X2656124Y77530D01*
X2627523Y67330D02*
G01*
X2670423Y67330D01*
X373424Y68130D02*
G01*
X373424Y37429D01*
X375423Y31330D01*
X379523Y27229D01*
X385723Y25230D01*
X389824Y25230D01*
X395924Y27229D01*
X400023Y31330D01*
X402023Y37429D01*
X402023Y68130D01*
X440124Y68130D02*
G01*
X419623Y68130D01*
X417624Y49729D01*
X419623Y51730D01*
X425823Y53830D01*
X431924Y53830D01*
X438024Y51730D01*
X442123Y47730D01*
X444223Y41530D01*
X444223Y37429D01*
X442123Y31330D01*
X438024Y27229D01*
X431924Y25230D01*
X425823Y25230D01*
X419623Y27229D01*
X417624Y29230D01*
X415524Y33330D01*
X142170Y14729D02*
G01*
X111469Y14729D01*
X105369Y12730D01*
X101269Y8630D01*
X99270Y2429D01*
X99270Y-1669D01*
X101269Y-7770D01*
X105369Y-11869D01*
X111469Y-13869D01*
X142170Y-13869D01*
X136069Y-56069D02*
G01*
X140169Y-51969D01*
X142170Y-45769D01*
X142170Y-37669D01*
X140169Y-31469D01*
X136069Y-27370D01*
X131970Y-27370D01*
X127869Y-29469D01*
X125769Y-31469D01*
X123769Y-35569D01*
X119670Y-47869D01*
X117669Y-51969D01*
X115569Y-53969D01*
X111469Y-56069D01*
X105369Y-56069D01*
X101269Y-51969D01*
X99270Y-45769D01*
X99270Y-37669D01*
X101269Y-31469D01*
X105369Y-27370D01*
X142170Y-69569D02*
G01*
X99270Y-69569D01*
X142170Y-69569D02*
G01*
X142170Y-87970D01*
X140169Y-94069D01*
X138069Y-96169D01*
X133969Y-98170D01*
X129870Y-98170D01*
X125769Y-96169D01*
X123769Y-94069D01*
X121770Y-87970D01*
X121770Y-69569D02*
G01*
X121770Y-87970D01*
X119670Y-94069D01*
X117669Y-96169D01*
X113569Y-98170D01*
X107370Y-98170D01*
X103269Y-96169D01*
X101269Y-94069D01*
X99270Y-87970D01*
X99270Y-69569D01*
X133969Y-111669D02*
G01*
X136069Y-115769D01*
X142170Y-121869D01*
X99270Y-121869D01*
G36*
X622700Y-77260D02*
G01*
X622700Y-82260D01*
X672700Y-82260D01*
X672700Y-77260D01*
G37*
G36*
X622700Y-12260D02*
G01*
X622700Y-17260D01*
X672700Y-17260D01*
X672700Y-12260D01*
G37*
G36*
X622700Y-187260D02*
G01*
X622700Y-192260D01*
X672700Y-192260D01*
X672700Y-187260D01*
G37*
G36*
X622700Y-122260D02*
G01*
X622700Y-127260D01*
X672700Y-127260D01*
X672700Y-122260D01*
G37*
X418435Y317360D02*
G01*
X387329Y317360D01*
X387329Y278099D02*
G01*
X418435Y278099D01*
X424434Y284100D02*
G01*
X424434Y311359D01*
X338411Y317360D02*
G01*
X369517Y317360D01*
X369517Y278099D02*
G01*
X338411Y278099D01*
X332411Y284100D02*
G01*
X332411Y311359D01*
X418435Y127360D02*
G01*
X387329Y127360D01*
X387329Y88099D02*
G01*
X418435Y88099D01*
X424436Y94100D02*
G01*
X424436Y121359D01*
X338411Y127360D02*
G01*
X369518Y127360D01*
X369518Y88099D02*
G01*
X338411Y88099D01*
X332411Y94100D02*
G01*
X332411Y121359D01*
D11*
X739231Y198469D02*
G01*
X739231Y166972D01*
X695539Y210668D02*
G01*
X727035Y210668D01*
X695539Y154776D02*
G01*
X727035Y154776D01*
X672867Y210896D02*
G01*
X641371Y210896D01*
X629172Y198699D02*
G01*
X629172Y167204D01*
X672867Y155007D02*
G01*
X641371Y155007D01*
D12*
X673461Y-12269D02*
G01*
X674572Y-12269D01*
X674572Y-82269D01*
X744674Y-82269D02*
G01*
X624674Y-82269D01*
X624674Y-12269D02*
G01*
X744674Y-12269D01*
X673461Y-122269D02*
G01*
X674572Y-122269D01*
X674572Y-192269D01*
X744674Y-192269D02*
G01*
X624674Y-192269D01*
X624674Y-122269D02*
G01*
X744674Y-122269D01*
D10*
X762014Y502817D02*
G01*
X704833Y502817D01*
X704833Y462202D01*
X762014Y382643D02*
G01*
X704833Y382643D01*
X704833Y423258D01*
X762014Y460659D02*
G01*
X762014Y424801D01*
X762014Y727817D02*
G01*
X704833Y727817D01*
X704833Y687202D01*
X762014Y607643D02*
G01*
X704833Y607643D01*
X704833Y648258D01*
X762014Y685659D02*
G01*
X762014Y649801D01*
X1000203Y641721D02*
G01*
X1037954Y641721D01*
X1037954Y693738D01*
X1000203Y693738D01*
X966644Y641721D02*
G01*
X928893Y641721D01*
X928893Y693738D01*
X966644Y693738D01*
X1000203Y416721D02*
G01*
X1037954Y416721D01*
X1037954Y468738D01*
X1000203Y468738D01*
X966644Y416721D02*
G01*
X928893Y416721D01*
X928893Y468738D01*
X966644Y468738D01*
X700980Y46721D02*
G01*
X738731Y46721D01*
X738731Y98738D01*
X700980Y98738D01*
X667419Y46721D02*
G01*
X629668Y46721D01*
X629668Y98738D01*
X667419Y98738D01*
D11*
X1009133Y-564960D02*
G01*
X1009133Y-757267D01*
X1097134Y-757267D01*
X1089133Y-564960D02*
G01*
X1089133Y-757267D01*
X1201424Y-757267D01*
X1201424Y-672267D01*
X1301424Y-672267D01*
X1301424Y-757267D01*
X1401424Y-757267D01*
X1401424Y-672267D01*
X1491424Y-672267D01*
X1491424Y-757267D01*
X1581424Y-757267D01*
X1581424Y-612267D01*
X1650755Y-564960D02*
G01*
X941424Y-564960D01*
X941424Y-534281D02*
G01*
X941424Y-802267D01*
X994607Y202732D02*
G01*
X941424Y202732D01*
X941424Y169352D01*
X1650755Y169352D02*
G01*
X1650755Y202732D01*
X1598241Y202732D01*
X1650755Y-802740D02*
G01*
X1650755Y-534281D01*
X942092Y-802740D02*
G01*
X1650755Y-802740D01*
D13*
X244675Y503398D02*
G01*
X219086Y503398D01*
X219086Y528987D01*
X244675Y712058D02*
G01*
X219086Y712058D01*
X219086Y686467D01*
X427746Y686467D02*
G01*
X427746Y712058D01*
X402155Y712058D01*
X402155Y503398D02*
G01*
X427746Y503398D01*
X427746Y528987D01*
D11*
X2682923Y-705270D02*
G01*
X2682923Y714729D01*
X2782923Y714729D01*
X2782923Y-705270D01*
X2682923Y-705270D01*
D10*
X319432Y-258222D02*
G01*
X319432Y3683D01*
X427415Y3683D01*
X427415Y-258222D01*
X319432Y-258222D01*
D11*
X-71601Y176775D02*
G01*
X-71601Y-167316D01*
X-258661Y-167316D02*
G01*
X-258663Y176775D01*
X26770Y127941D02*
G01*
X26770Y127119D01*
X-258663Y176775D02*
G01*
X-210617Y176775D01*
X-94103Y176775D02*
G01*
X-23613Y176775D01*
X-258661Y-167316D02*
G01*
X-210617Y-167316D01*
X-94103Y-167316D02*
G01*
X-23613Y-167316D01*
D10*
G75*
G01*
X418435Y278100D02*
G03*
X424435Y284100I0J6000D01*
G75*
G01*
X424435Y311360D02*
G03*
X418435Y317360I-6000J0D01*
G75*
G01*
X338411Y278100D02*
G02*
X332411Y284100I0J6000D01*
G75*
G01*
X332411Y311360D02*
G02*
X338411Y317360I6000J0D01*
G75*
G01*
X418436Y88100D02*
G03*
X424436Y94100I0J6000D01*
G75*
G01*
X424436Y121360D02*
G03*
X418436Y127360I-6000J0D01*
G75*
G01*
X338412Y88100D02*
G02*
X332412Y94100I0J6000D01*
G75*
G01*
X332412Y121360D02*
G02*
X338412Y127360I6000J0D01*
D11*
G75*
G01*
X629171Y198699D02*
G02*
X641369Y210897I12198J0D01*
G75*
G01*
X641369Y155005D02*
G02*
X629171Y167204I0J12198D01*
G75*
G01*
X727033Y210668D02*
G02*
X739231Y198469I0J-12198D01*
G75*
G01*
X739231Y166974D02*
G02*
X727033Y154776I-12198J0D01*
D14*
G75*
G01*
X226916Y489628D02*
G03*
X227016Y489628I50J-5906D01*
D11*
G75*
G01
X1722234Y-532270D02*
G03X1722234Y-532270I-15810J0D01*
M02*
