G04 Layer: TopPasteMaskLayer*
G04 EasyEDA v6.5.22, 2023-04-11 14:51:41*
G04 09d7e0edd1714e2dabe8a3ea8b78781f,917733c78a1c4f138cc1705716371eb4,10*
G04 Gerber Generator version 0.2*
G04 Scale: 100 percent, Rotated: No, Reflected: No *
G04 Dimensions in inches *
G04 leading zeros omitted , absolute positions ,3 integer and 6 decimal *
%FSLAX36Y36*%
%MOIN*%

%AMMACRO1*21,1,$1,$2,0,0,$3*%
%ADD10R,0.0315X0.0354*%
%ADD11R,0.0433X0.0512*%
%ADD12R,0.0492X0.0276*%
%ADD13R,0.0591X0.0354*%
%ADD14R,0.0354X0.0591*%
%ADD15R,0.0354X0.0354*%
%ADD16R,0.1260X0.1260*%
%ADD17O,0.035433X0.011024*%
%ADD18O,0.011024X0.035433*%
%ADD19MACRO1,0.0386X0.0972X90.0000*%
%ADD20MACRO1,0.1417X0.0972X-90.0000*%
%ADD21R,0.0374X0.0098*%

%LPD*%
G36*
X349680Y308560D02*
G01*
X347720Y306580D01*
X347720Y288880D01*
X349680Y286900D01*
X368579Y286900D01*
X371340Y288880D01*
X371340Y306580D01*
X368579Y308560D01*
G37*
G36*
X388260Y308560D02*
G01*
X385500Y306580D01*
X385500Y288880D01*
X388260Y286900D01*
X407160Y286900D01*
X409140Y288880D01*
X409140Y306580D01*
X407160Y308560D01*
G37*
G36*
X349680Y118560D02*
G01*
X347720Y116580D01*
X347720Y98880D01*
X349680Y96900D01*
X368579Y96900D01*
X371340Y98880D01*
X371340Y116580D01*
X368579Y118560D01*
G37*
G36*
X388260Y118560D02*
G01*
X385500Y116580D01*
X385500Y98880D01*
X388260Y96900D01*
X407160Y96900D01*
X409140Y98880D01*
X409140Y116580D01*
X407160Y118560D01*
G37*
G36*
X998980Y685440D02*
G01*
X997000Y683480D01*
X997000Y674500D01*
X1011580Y674500D01*
X1011580Y661520D01*
X997000Y661520D01*
X997000Y651979D01*
X998980Y650020D01*
X1030480Y650020D01*
X1032440Y651979D01*
X1032440Y683480D01*
X1030480Y685440D01*
G37*
G36*
X936380Y685440D02*
G01*
X934400Y683480D01*
X934400Y651979D01*
X936380Y650020D01*
X967480Y650020D01*
X969440Y651979D01*
X969440Y661520D01*
X954479Y661520D01*
X954479Y674500D01*
X969440Y674500D01*
X969440Y683480D01*
X967480Y685440D01*
G37*
G36*
X998980Y460439D02*
G01*
X997000Y458480D01*
X997000Y449500D01*
X1011580Y449500D01*
X1011580Y436520D01*
X997000Y436520D01*
X997000Y426980D01*
X998980Y425020D01*
X1030480Y425020D01*
X1032440Y426980D01*
X1032440Y458480D01*
X1030480Y460439D01*
G37*
G36*
X936380Y460439D02*
G01*
X934400Y458480D01*
X934400Y426980D01*
X936380Y425020D01*
X967480Y425020D01*
X969440Y426980D01*
X969440Y436520D01*
X954479Y436520D01*
X954479Y449500D01*
X969440Y449500D01*
X969440Y458480D01*
X967480Y460439D01*
G37*
G36*
X699760Y90440D02*
G01*
X697780Y88480D01*
X697780Y79500D01*
X712360Y79500D01*
X712360Y66520D01*
X697780Y66520D01*
X697780Y56980D01*
X699760Y55020D01*
X731240Y55020D01*
X733220Y56980D01*
X733220Y88480D01*
X731240Y90440D01*
G37*
G36*
X637160Y90440D02*
G01*
X635180Y88480D01*
X635180Y56980D01*
X637160Y55020D01*
X668259Y55020D01*
X670220Y56980D01*
X670220Y66520D01*
X655260Y66520D01*
X655260Y79500D01*
X670220Y79500D01*
X670220Y88480D01*
X668259Y90440D01*
G37*
D10*
G01*
X712063Y182730D03*
G01*
X656943Y182730D03*
D11*
G01*
X645304Y-47269D03*
G01*
X724043Y-47269D03*
G01*
X645304Y-157269D03*
G01*
X724043Y-157269D03*
D12*
G01*
X772793Y405330D03*
G01*
X772793Y480129D03*
G01*
X694054Y442730D03*
G01*
X772793Y630330D03*
G01*
X772793Y705129D03*
G01*
X694054Y667730D03*
D13*
G01*
X1640913Y-507469D03*
G01*
X1640913Y-457469D03*
G01*
X1640913Y-407469D03*
G01*
X1640913Y-357469D03*
G01*
X1640913Y-307469D03*
G01*
X1640913Y-257469D03*
G01*
X1640913Y-207469D03*
G01*
X1640913Y-157469D03*
G01*
X1640913Y-107469D03*
G01*
X1640913Y-57469D03*
G01*
X1640913Y-7469D03*
G01*
X1640913Y42530D03*
G01*
X1640913Y92530D03*
G01*
X1640913Y142530D03*
D14*
G01*
X1571424Y192930D03*
G01*
X1521424Y192930D03*
G01*
X1471424Y192930D03*
G01*
X1421424Y192930D03*
G01*
X1371424Y192930D03*
G01*
X1321424Y192930D03*
G01*
X1271424Y192930D03*
G01*
X1221424Y192930D03*
G01*
X1171424Y192930D03*
G01*
X1121424Y192930D03*
G01*
X1071424Y192930D03*
G01*
X1021424Y191750D03*
D13*
G01*
X951933Y142530D03*
G01*
X951933Y92530D03*
G01*
X951933Y42530D03*
G01*
X951933Y-7469D03*
G01*
X951933Y-57469D03*
G01*
X951933Y-107469D03*
G01*
X951933Y-157469D03*
G01*
X951933Y-207469D03*
G01*
X951933Y-257469D03*
G01*
X951933Y-307469D03*
G01*
X951933Y-357469D03*
G01*
X951933Y-407469D03*
G01*
X951933Y-457469D03*
G01*
X951933Y-507469D03*
D15*
G01*
X1300364Y-148409D03*
G01*
X1355484Y-148399D03*
G01*
X1410603Y-148409D03*
G01*
X1410603Y-258640D03*
G01*
X1355484Y-258640D03*
G01*
X1300364Y-258640D03*
G01*
X1300364Y-203519D03*
G01*
X1410603Y-203519D03*
G01*
X1355484Y-203519D03*
D16*
G01*
X323424Y607719D03*
D17*
G01*
X225003Y548620D03*
G01*
X225003Y568320D03*
G01*
X225003Y588020D03*
G01*
X225003Y607719D03*
G01*
X225003Y627420D03*
G01*
X225003Y647119D03*
G01*
X225003Y666820D03*
D18*
G01*
X264324Y706150D03*
G01*
X284023Y706150D03*
G01*
X303724Y706150D03*
G01*
X323424Y706150D03*
G01*
X343124Y706150D03*
G01*
X362823Y706150D03*
G01*
X382513Y706150D03*
D17*
G01*
X421843Y666820D03*
G01*
X421843Y647119D03*
G01*
X421843Y627420D03*
G01*
X421843Y607719D03*
G01*
X421843Y588020D03*
G01*
X421843Y568320D03*
G01*
X421843Y548620D03*
D18*
G01*
X382513Y509300D03*
G01*
X362823Y509300D03*
G01*
X343124Y509300D03*
G01*
X323424Y509300D03*
G01*
X303724Y509300D03*
G01*
X284023Y509300D03*
G01*
X264324Y509300D03*
D19*
G01*
X485038Y-217821D03*
G01*
X485038Y-127269D03*
G01*
X485038Y-36718D03*
D20*
G01*
X261810Y-127269D03*
D21*
G01*
X49214Y108270D03*
G01*
X49214Y88589D03*
G01*
X49214Y68900D03*
G01*
X49214Y49220D03*
G01*
X49214Y29529D03*
G01*
X49214Y9850D03*
G01*
X49214Y-9839D03*
G01*
X49214Y-29519D03*
G01*
X49214Y-49209D03*
G01*
X49214Y-68889D03*
G01*
X49214Y-88579D03*
G01*
X49214Y-108260D03*
G01*
X3Y-98419D03*
G01*
X3Y-78739D03*
G01*
X3Y-59049D03*
G01*
X3Y-39369D03*
G01*
X3Y-19679D03*
G01*
X3Y0D03*
G01*
X3Y19690D03*
G01*
X3Y39370D03*
G01*
X3Y59059D03*
G01*
X3Y78740D03*
G01*
X3Y98430D03*
G01*
X3Y118110D03*
M02*
